<?xml version="1.0" encoding="UTF-8"?>
<svg width="115px" height="17px" viewBox="0 0 115 17" version="1.1" xmlns="http://www.w3.org/2000/svg" xmlns:xlink="http://www.w3.org/1999/xlink">
    <title>Logo</title>
    <g id="Landing-Page" stroke="none" stroke-width="1" fill="none" fill-rule="evenodd">
        <g id="Artboard-Copy-4" transform="translate(-156.000000, -43.000000)" fill-rule="nonzero" stroke-width="0.5">
            <g id="Group" transform="translate(157.000000, 43.000000)">
                <g id="Superwall-Design/Logo_Dark_Mode-Copy" transform="translate(0.000000, 1.000000)">
                    <path d="M5.31123077,15.1269231 C5.43448718,15.1269231 5.53253205,15.0905064 5.60536538,15.0176731 C5.67819872,14.9448397 5.71461538,14.8467949 5.71461538,14.7235385 L5.71461538,14.7235385 L5.71461538,13.547 C6.90235897,13.4237436 7.84639103,13.0595769 8.54671154,12.4545 C9.24703205,11.8494231 9.59719231,11.0594615 9.59719231,10.0846154 C9.59719231,9.42351282 9.45712821,8.8800641 9.177,8.45426923 C8.89687179,8.02847436 8.46267308,7.67551282 7.87440385,7.39538462 C7.28613462,7.11525641 6.49337179,6.86314103 5.49611538,6.63903846 C4.77898718,6.45975641 4.22713462,6.29167949 3.84055769,6.13480769 C3.45398077,5.9779359 3.17385256,5.79865385 3.00017308,5.59696154 C2.82649359,5.39526923 2.73965385,5.14315385 2.73965385,4.84061538 C2.73965385,4.39241026 2.91613462,4.05065385 3.26909615,3.81534615 C3.62205769,3.58003846 4.10667949,3.46238462 4.72296154,3.46238462 C5.28321795,3.46238462 5.75103205,3.58283974 6.12640385,3.82375 C6.50177564,4.06466026 6.72307692,4.36439744 6.79030769,4.72296154 C6.87994872,4.92465385 7.04242308,5.0255 7.27773077,5.0255 L7.27773077,5.0255 L8.87446154,5.0255 C8.97530769,5.0255 9.05934615,4.99188462 9.12657692,4.92465385 C9.19380769,4.85742308 9.22742308,4.77338462 9.22742308,4.67253846 C9.20501282,4.25794872 9.05654487,3.83215385 8.78201923,3.39515385 C8.50749359,2.95815385 8.10971154,2.57437821 7.58867308,2.24382692 C7.06763462,1.91327564 6.44294872,1.69757692 5.71461538,1.59673077 L5.71461538,1.59673077 L5.71461538,0.403384615 C5.71461538,0.280128205 5.67819872,0.182083333 5.60536538,0.10925 C5.53253205,0.0364166667 5.43448718,-2.59621384e-14 5.31123077,-2.59621384e-14 L5.31123077,-2.59621384e-14 L4.26915385,-2.59621384e-14 C4.15710256,-2.59621384e-14 4.06185897,0.0364166667 3.98342308,0.10925 C3.90498718,0.182083333 3.86576923,0.280128205 3.86576923,0.403384615 L3.86576923,0.403384615 L3.86576923,1.56311538 C2.76766667,1.69757692 1.90207051,2.06734615 1.26898077,2.67242308 C0.635891026,3.2775 0.319346154,4.01703846 0.319346154,4.89103846 C0.319346154,5.85467949 0.627487179,6.59421795 1.24376923,7.10965385 C1.86005128,7.62508974 2.82929487,8.03967949 4.1515,8.35342308 C4.9470641,8.56632051 5.54933974,8.74840385 5.95832692,8.89967308 C6.3673141,9.05094231 6.67265385,9.22742308 6.87434615,9.42911538 C7.07603846,9.63080769 7.17688462,9.88292308 7.17688462,10.1854615 C7.17688462,10.6448718 6.97799359,11.0062372 6.58021154,11.2695577 C6.18242949,11.5328782 5.59696154,11.6645385 4.82380769,11.6645385 C4.12908974,11.6645385 3.58283974,11.5356795 3.18505769,11.2779615 C2.78727564,11.0202436 2.52675641,10.7008974 2.4035,10.3199231 C2.33626923,10.2078718 2.26623718,10.1266346 2.19340385,10.0762115 C2.12057051,10.0257885 2.01692308,10.0005769 1.88246154,10.0005769 L1.88246154,10.0005769 L0.369769231,10.0005769 C0.268923077,10.0005769 0.182083333,10.0369936 0.10925,10.1098269 C0.0364166667,10.1826603 1.03848554e-14,10.2638974 1.03848554e-14,10.3535385 C0.0224102564,10.8689744 0.182083333,11.3535962 0.479019231,11.8074038 C0.775955128,12.2612115 1.21295513,12.6449872 1.79001923,12.9587308 C2.36708333,13.2724744 3.059,13.4685641 3.86576923,13.547 L3.86576923,13.547 L3.86576923,14.7235385 C3.86576923,14.8467949 3.90498718,14.9448397 3.98342308,15.0176731 C4.06185897,15.0905064 4.15710256,15.1269231 4.26915385,15.1269231 L4.26915385,15.1269231 L5.31123077,15.1269231 Z" id="Path" stroke="#74FFF1" fill="#74FFF1"></path>
                    <path d="M18.0631538,13.6142308 C19.5758462,13.6142308 20.7495833,13.2276538 21.5843654,12.4545 C22.4191474,11.6813462 22.8365385,10.5104103 22.8365385,8.94169231 L22.8365385,8.94169231 L22.8365385,2.10096154 C22.8365385,1.97770513 22.8001218,1.87685897 22.7272885,1.79842308 C22.6544551,1.71998718 22.5564103,1.68076923 22.4331538,1.68076923 L22.4331538,1.68076923 L20.8868462,1.68076923 C20.7635897,1.68076923 20.6627436,1.71998718 20.5843077,1.79842308 C20.5058718,1.87685897 20.4666538,1.97770513 20.4666538,2.10096154 L20.4666538,2.10096154 L20.4666538,8.94169231 C20.4666538,9.82689744 20.2565577,10.4936026 19.8363654,10.9418077 C19.4161731,11.3900128 18.8195,11.6141154 18.0463462,11.6141154 C17.2731923,11.6141154 16.6765192,11.3900128 16.2563269,10.9418077 C15.8361346,10.4936026 15.6260385,9.82689744 15.6260385,8.94169231 L15.6260385,8.94169231 L15.6260385,2.10096154 C15.6260385,1.97770513 15.5868205,1.87685897 15.5083846,1.79842308 C15.4299487,1.71998718 15.3291026,1.68076923 15.2058462,1.68076923 L15.2058462,1.68076923 L13.6595385,1.68076923 C13.5362821,1.68076923 13.4382372,1.71998718 13.3654038,1.79842308 C13.2925705,1.87685897 13.2561538,1.97770513 13.2561538,2.10096154 L13.2561538,2.10096154 L13.2561538,8.94169231 C13.2561538,10.5104103 13.6763462,11.6813462 14.5167308,12.4545 C15.3571154,13.2276538 16.5392564,13.6142308 18.0631538,13.6142308 Z" id="Path" stroke="#74FFF1" fill="#74FFF1"></path>
                    <path d="M32.0924615,1.68076923 L32.3785353,1.68565718 C33.5988653,1.72801943 34.5679945,2.04573626 35.2859231,2.63880769 C36.0590769,3.2775 36.4456538,4.20752564 36.4456538,5.42888462 C36.4456538,6.63903846 36.0590769,7.55505769 35.2859231,8.17694231 C34.5127692,8.79882692 33.4482821,9.10976923 32.0924615,9.10976923 L32.0924615,9.10976923 L29.6217308,9.10976923 L29.6217308,13.0427692 L29.6143774,13.1304844 C29.5996707,13.2134724 29.5629038,13.2822788 29.5040769,13.3369038 C29.425641,13.4097372 29.3247949,13.4461538 29.2015385,13.4461538 L29.2015385,13.4461538 L27.588,13.4461538 L27.507113,13.4388005 C27.4293774,13.4240938 27.3610962,13.3873269 27.3022692,13.3285 C27.2238333,13.2500641 27.1846154,13.1548205 27.1846154,13.0427692 L27.1846154,13.0427692 L27.1846154,2.10096154 L27.1914435,2.01272115 C27.2050998,1.92868269 27.2392404,1.85725 27.2938654,1.79842308 C27.3666987,1.71998718 27.4647436,1.68076923 27.588,1.68076923 L27.588,1.68076923 L32.0924615,1.68076923 Z M32.0084231,3.56323077 L29.5881154,3.56323077 L29.5881154,7.22730769 L32.0084231,7.22730769 C32.6583205,7.22730769 33.1541474,7.07323718 33.4959038,6.76509615 C33.8376603,6.45695513 34.0085385,6.00594872 34.0085385,5.41207692 C34.0085385,4.82941026 33.8432628,4.37560256 33.5127115,4.05065385 C33.1821603,3.72570513 32.6807308,3.56323077 32.0084231,3.56323077 L32.0084231,3.56323077 Z" id="Combined-Shape" stroke="#74FFF1" fill="#74FFF1"></path>
                    <path d="M48.0546538,13.4461538 C48.1779103,13.4461538 48.2787564,13.4097372 48.3571923,13.3369038 C48.4356282,13.2640705 48.4748462,13.1660256 48.4748462,13.0427692 L48.4748462,13.0427692 L48.4748462,11.8998462 C48.4748462,11.7765897 48.4356282,11.6785449 48.3571923,11.6057115 C48.2787564,11.5328782 48.1779103,11.4964615 48.0546538,11.4964615 L48.0546538,11.4964615 L42.4072692,11.4964615 L42.4072692,8.45426923 L47.5504231,8.45426923 C47.6736795,8.45426923 47.7745256,8.41785256 47.8529615,8.34501923 C47.9313974,8.2721859 47.9706154,8.17414103 47.9706154,8.05088462 L47.9706154,8.05088462 L47.9706154,6.992 C47.9706154,6.86874359 47.9313974,6.76789744 47.8529615,6.68946154 C47.7745256,6.61102564 47.6736795,6.57180769 47.5504231,6.57180769 L47.5504231,6.57180769 L42.4072692,6.57180769 L42.4072692,3.63046154 L47.9201923,3.63046154 C48.0434487,3.63046154 48.1442949,3.59404487 48.2227308,3.52121154 C48.3011667,3.44837821 48.3403846,3.35033333 48.3403846,3.22707692 L48.3403846,3.22707692 L48.3403846,2.10096154 C48.3403846,1.97770513 48.3011667,1.87685897 48.2227308,1.79842308 C48.1442949,1.71998718 48.0434487,1.68076923 47.9201923,1.68076923 L47.9201923,1.68076923 L40.508,1.68076923 C40.3847436,1.68076923 40.2866987,1.71998718 40.2138654,1.79842308 C40.1410321,1.87685897 40.1046154,1.97770513 40.1046154,2.10096154 L40.1046154,2.10096154 L40.1046154,13.0427692 C40.1046154,13.1548205 40.1438333,13.2500641 40.2222692,13.3285 C40.3007051,13.4069359 40.3959487,13.4461538 40.508,13.4461538 L40.508,13.4461538 L48.0546538,13.4461538 Z" id="Path" stroke="#74FFF1" fill="#74FFF1"></path>
                    <path d="M57.1593077,1.68076923 L57.450055,1.68565718 C58.6900797,1.72801943 59.6716575,2.04573626 60.3947885,2.63880769 C61.1735449,3.2775 61.5629231,4.18511538 61.5629231,5.36165385 C61.5629231,6.17962821 61.3668333,6.86594231 60.9746538,7.42059615 C60.5824744,7.97525 60.0334231,8.37583333 59.3275,8.62234615 L59.3275,8.62234615 L61.7646154,12.9083077 L61.7926282,12.9736709 C61.8075684,13.0160014 61.8150385,13.0558419 61.8150385,13.0931923 C61.8150385,13.1940385 61.7786218,13.2780769 61.7057885,13.3453077 C61.6329551,13.4125385 61.5517179,13.4461538 61.4620769,13.4461538 L61.4620769,13.4461538 L59.9157692,13.4461538 L59.8129062,13.4411115 C59.6820303,13.4276654 59.5762538,13.3873269 59.4955769,13.3200962 C59.3947308,13.2360577 59.3050897,13.1268077 59.2266538,12.9923462 L59.2266538,12.9923462 L57.0752692,9.00892308 L54.7726154,9.00892308 L54.7726154,13.0427692 L54.765262,13.1236563 C54.7505553,13.2013918 54.7137885,13.2696731 54.6549615,13.3285 C54.5765256,13.4069359 54.4756795,13.4461538 54.3524231,13.4461538 L54.3524231,13.4461538 L52.8061154,13.4461538 L52.7252284,13.4388005 C52.6474928,13.4240938 52.5792115,13.3873269 52.5203846,13.3285 C52.4419487,13.2500641 52.4027308,13.1548205 52.4027308,13.0427692 L52.4027308,13.0427692 L52.4027308,2.10096154 L52.4095589,2.01272115 C52.4232151,1.92868269 52.4573558,1.85725 52.5119808,1.79842308 C52.5848141,1.71998718 52.682859,1.68076923 52.8061154,1.68076923 L52.8061154,1.68076923 L57.1593077,1.68076923 Z M57.1088846,3.56323077 L54.7726154,3.56323077 L54.7726154,7.09284615 L57.1088846,7.09284615 C57.7811923,7.09284615 58.2854231,6.94437821 58.6215769,6.64744231 C58.9577308,6.35050641 59.1258077,5.91630769 59.1258077,5.34484615 C59.1258077,4.77338462 58.9577308,4.33358333 58.6215769,4.02544231 C58.2854231,3.71730128 57.7811923,3.56323077 57.1088846,3.56323077 L57.1088846,3.56323077 Z" id="Combined-Shape" stroke="#74FFF1" fill="#74FFF1"></path>
                    <path d="M68.4825769,13.4461538 C68.7851154,13.4461538 68.9812051,13.3060897 69.0708462,13.0259615 L69.0708462,13.0259615 L70.9533077,7.44580769 L72.8357692,13.0259615 C72.8693846,13.1380128 72.9366154,13.2360577 73.0374615,13.3200962 C73.1383077,13.4041346 73.2671667,13.4461538 73.4240385,13.4461538 L73.4240385,13.4461538 L74.5669615,13.4461538 C74.7350385,13.4461538 74.8723013,13.4013333 74.97875,13.3116923 C75.0851987,13.2220513 75.1496282,13.0987949 75.1720385,12.9419231 L75.1720385,12.9419231 L77.1553462,2.16819231 C77.1665513,2.13457692 77.1721538,2.08975641 77.1721538,2.03373077 C77.1721538,1.93288462 77.1385385,1.84884615 77.0713077,1.78161538 C77.0040769,1.71438462 76.925641,1.68076923 76.836,1.68076923 L76.836,1.68076923 L75.3233077,1.68076923 C75.0431795,1.68076923 74.8863077,1.79282051 74.8526923,2.01692308 L74.8526923,2.01692308 L73.4744615,9.58038462 L71.9617692,4.70615385 C71.9281538,4.59410256 71.8665256,4.49605769 71.7768846,4.41201923 C71.6872436,4.32798077 71.5695897,4.28596154 71.4239231,4.28596154 L71.4239231,4.28596154 L70.4995,4.28596154 C70.2417821,4.28596154 70.0568974,4.42602564 69.9448462,4.70615385 L69.9448462,4.70615385 L68.4489615,9.58038462 L67.0539231,2.01692308 C67.0315128,1.89366667 66.9866923,1.80682692 66.9194615,1.75640385 C66.8522308,1.70598077 66.7457821,1.68076923 66.6001154,1.68076923 L66.6001154,1.68076923 L65.0874231,1.68076923 C64.9865769,1.68076923 64.9025385,1.71438462 64.8353077,1.78161538 C64.7680769,1.84884615 64.7344615,1.93288462 64.7344615,2.03373077 L64.7344615,2.03373077 L64.7512692,2.16819231 L66.7345769,12.9419231 C66.8130128,13.2780769 67.0147051,13.4461538 67.3396538,13.4461538 L67.3396538,13.4461538 L68.4825769,13.4461538 Z" id="Path" stroke="#FFFFFF" fill="#FFFFFF"></path>
                    <path d="M85.9238462,1.68076923 L86.0288942,1.68733474 C86.2642019,1.71797376 86.4308782,1.85584936 86.5289231,2.10096154 L86.5289231,2.10096154 L90.5627692,12.9419231 L90.5963846,13.0931923 L90.5895565,13.1656755 C90.5759002,13.2350072 90.5417596,13.2948846 90.4871346,13.3453077 C90.4143013,13.4125385 90.3330641,13.4461538 90.2434231,13.4461538 L90.2434231,13.4461538 L88.7475385,13.4461538 L88.6511515,13.4396366 C88.4672959,13.4135675 88.3369505,13.3092912 88.2601154,13.1268077 L88.2601154,13.1268077 L87.4869615,11.0930769 L82.5118846,11.0930769 L81.7387308,13.1268077 L81.695854,13.2115322 C81.6011821,13.3679466 81.453,13.4461538 81.2513077,13.4461538 L81.2513077,13.4461538 L79.7554231,13.4461538 L79.6829399,13.439851 C79.6136082,13.4272452 79.5537308,13.3957308 79.5033077,13.3453077 C79.4360769,13.2780769 79.4024615,13.1940385 79.4024615,13.0931923 L79.4024615,13.0931923 L79.4360769,12.9419231 L83.4699231,2.10096154 L83.5161442,2.00247897 C83.6337981,1.78800581 83.8200833,1.68076923 84.075,1.68076923 L84.075,1.68076923 L85.9238462,1.68076923 Z M84.9994231,3.96661538 L83.1001538,9.14338462 L86.8986923,9.14338462 L84.9994231,3.96661538 Z" id="Combined-Shape" stroke="#FFFFFF" fill="#FFFFFF"></path>
                    <path d="M101.684346,13.4461538 C101.807603,13.4461538 101.908449,13.4069359 101.986885,13.3285 C102.065321,13.2500641 102.104538,13.1548205 102.104538,13.0427692 L102.104538,13.0427692 L102.104538,11.8326154 C102.104538,11.7205641 102.065321,11.6253205 101.986885,11.5468846 C101.908449,11.4684487 101.807603,11.4292308 101.684346,11.4292308 L101.684346,11.4292308 L96.3563077,11.4292308 L96.3563077,2.08415385 C96.3563077,1.96089744 96.319891,1.86285256 96.2470577,1.79001923 C96.1742244,1.7171859 96.0761795,1.68076923 95.9529231,1.68076923 L95.9529231,1.68076923 L94.373,1.68076923 C94.2609487,1.68076923 94.1657051,1.7171859 94.0872692,1.79001923 C94.0088333,1.86285256 93.9696154,1.96089744 93.9696154,2.08415385 L93.9696154,2.08415385 L93.9696154,13.0427692 C93.9696154,13.1548205 94.0088333,13.2500641 94.0872692,13.3285 C94.1657051,13.4069359 94.2609487,13.4461538 94.373,13.4461538 L94.373,13.4461538 L101.684346,13.4461538 Z" id="Path" stroke="#FFFFFF" fill="#FFFFFF"></path>
                    <path d="M113.276538,13.4461538 C113.399795,13.4461538 113.500641,13.4069359 113.579077,13.3285 C113.657513,13.2500641 113.696731,13.1548205 113.696731,13.0427692 L113.696731,13.0427692 L113.696731,11.8326154 C113.696731,11.7205641 113.657513,11.6253205 113.579077,11.5468846 C113.500641,11.4684487 113.399795,11.4292308 113.276538,11.4292308 L113.276538,11.4292308 L107.9485,11.4292308 L107.9485,2.08415385 C107.9485,1.96089744 107.912083,1.86285256 107.83925,1.79001923 C107.766417,1.7171859 107.668372,1.68076923 107.545115,1.68076923 L107.545115,1.68076923 L105.965192,1.68076923 C105.853141,1.68076923 105.757897,1.7171859 105.679462,1.79001923 C105.601026,1.86285256 105.561808,1.96089744 105.561808,2.08415385 L105.561808,2.08415385 L105.561808,13.0427692 C105.561808,13.1548205 105.601026,13.2500641 105.679462,13.3285 C105.757897,13.4069359 105.853141,13.4461538 105.965192,13.4461538 L105.965192,13.4461538 L113.276538,13.4461538 Z" id="Path" stroke="#FFFFFF" fill="#FFFFFF"></path>
                </g>
            </g>
        </g>
    </g>
</svg>